#!OML:ASF F:\VICON\USERDATA\Patient Classification 1\PLAYGROUND\JustinFriday\JustinFriday.ASF
:FULLY-SPECIFIED
:DEGREES
3806
root -17.1571 17.5452 11.1739 291.47 82.3217 -71.1252
lowerback 19.2213 2.20355 5.92475
upperback 2.04949 4.52546 2.28073
thorax -8.26961 2.08173 -2.05875
lowerneck -7.1607 -4.26185 -8.75202
upperneck 3.87845 -5.47976 10.8521
head 2.86979 -2.48002 4.45612
rclavicle -3.8117e-014 -2.06736e-014
rhumerus 88.3248 -14.5513 -59.8192
rradius 64.4269
rwrist 8.16283
rhand 0.555103 -377.361
rfingers 7.12502
rthumb 26.122 -405.584
lclavicle -3.8117e-014 -2.06736e-014
lhumerus 87.0668 16.601 60.7897
lradius 57.4533
lwrist -8.49594
lhand 7.24583 -7.91146
lfingers 7.12502
lthumb 32.5097 19.1909
rfemur -0.385893 -5.44101 32.0707
rtibia 22.2991
rfoot -20.1943 1.97543
rtoes 20.826
lfemur -28.596 7.77648 -13.852
ltibia 28.5093
lfoot -5.08287 -3.32825
ltoes 10.4663
3807
root -17.2675 17.5361 11.1766 294.962 82.4996 -67.2884
lowerback 19.781 2.37372 5.61672
upperback 2.22786 4.71688 2.21375
thorax -8.38395 2.18309 -2.03378
lowerneck -6.95754 -4.38954 -8.53483
upperneck 3.75511 -5.67793 10.8828
head 2.8145 -2.58021 4.42191
rclavicle -3.08116e-014 7.7526e-015
rhumerus 89.0664 -14.1108 -60.5295
rradius 63.4716
rwrist 8.59464
rhand -0.14932 -377.391
rfingers 7.12502
rthumb 25.4473 -405.712
lclavicle -3.08116e-014 7.7526e-015
lhumerus 88.4092 15.8701 61.9486
lradius 55.7026
lwrist -9.75903
lhand 6.70044 -8.32776
lfingers 7.12502
lthumb 31.9905 18.8801
rfemur -0.43516 -5.58884 31.6284
rtibia 22.3819
rfoot -20.1076 2.63765
rtoes 21.6101
lfemur -28.2202 8.33286 -14.3316
ltibia 28.0898
lfoot -5.71145 -3.44758
ltoes 7.31283
3808
root -17.3892 17.5273 11.2017 293.618 82.1923 -69.3035
lowerback 19.5019 2.4264 5.61745
upperback 1.92588 4.81936 2.63714
thorax -8.59718 2.22611 -1.59591
lowerneck -6.1425 -4.54486 -8.53158
upperneck 3.70468 -5.92018 10.4873
head 2.67542 -2.73968 4.30031
rclavicle 8.34896e-015 1.98785e-014
rhumerus 89.3986 -13.4809 -60.5647
rradius 62.7504
rwrist 8.53124
rhand -0.957858 -377.68
rfingers 7.12502
rthumb 24.6726 -406.109
lclavicle 8.34896e-015 1.98785e-014
lhumerus 87.8458 15.9051 62.5635
lradius 55.3752
lwrist -10.0922
lhand 6.25422 -8.6388
lfingers 7.12502
lthumb 31.5655 18.6533
rfemur -1.6952 -5.62119 32.3603
rtibia 22.4835
rfoot -19.9591 2.32365
rtoes 21.0771
lfemur -29.1187 8.45959 -13.9413
ltibia 27.7391
lfoot -6.33685 -3.47982
ltoes 5.43455
3809
root -17.5012 17.5435 11.2188 295.4 82.4005 -67.7698
lowerback 19.5832 2.52899 5.07915
upperback 1.81047 4.86099 2.77002
thorax -8.82329 2.25734 -1.17027
lowerneck -5.19264 -4.73835 -7.68416
upperneck 3.2139 -6.21772 9.34534
head 2.33684 -2.94212 3.81979
rclavicle -7.77248e-014 -1.90833e-014
rhumerus 89.7681 -12.8648 -60.4808
rradius 62.0241
rwrist 8.20145
rhand -1.92607 -377.912
rfingers 7.12502
rthumb 23.7443 -406.465
lclavicle -7.77248e-014 -1.90833e-014
lhumerus 88.4704 15.6257 63.657
lradius 53.8625
lwrist -11.2442
lhand 5.76004 -10.0628
lfingers 7.12502
lthumb 31.0946 17.3206
rfemur -2.43686 -5.81003 32.1653
rtibia 22.5226
rfoot -19.7801 2.65665
rtoes 21.1879
lfemur -29.3327 6.92477 -13.6359
ltibia 27.479
lfoot -7.57954 -2.11122
ltoes 10.2054
3810
root -17.6119 17.5715 11.2266 296.954 82.2614 -66.4415
lowerback 19.6318 2.56365 5.18911
upperback 1.86899 4.91855 2.65639
thorax -8.76242 2.28084 -1.37033
lowerneck -4.53022 -5.14888 -5.32913
upperneck 2.38175 -6.80837 6.95372
head 2.03054 -3.30095 2.96102
rclavicle -5.29761e-014 8.74653e-015
rhumerus 90.312 -12.642 -60.785
rradius 61.2214
rwrist 8.14292
rhand -3.02336 -377.973
rfingers 7.12502
rthumb 22.6915 -406.659
lclavicle -5.29761e-014 8.74653e-015
lhumerus 89.5228 15.2396 64.5178
lradius 52.378
lwrist -12.377
lhand 5.04808 -11.6662
lfingers 7.12502
lthumb 30.4158 15.8449
rfemur -3.08073 -6.0138 32.2307
rtibia 22.4522
rfoot -19.4201 3.55706
rtoes 22.7372
lfemur -29.676 6.07754 -13.1368
ltibia 27.3809
lfoot -8.67816 -1.21648
ltoes 13.2504
3811
root -17.7221 17.5846 11.2305 297.377 82.0285 -66.1988
lowerback 19.7601 2.5282 5.59244
upperback 1.96086 4.94894 2.49108
thorax -8.67999 2.28194 -1.78671
lowerneck -5.08816 -5.05722 -5.57756
upperneck 2.63074 -6.686 7.6468
head 2.25304 -3.2126 3.23927
rclavicle 5.56597e-015 6.16232e-014
rhumerus 90.8081 -12.5292 -61.4242
rradius 60.5049
rwrist 8.59307
rhand -3.55503 -377.427
rfingers 7.12502
rthumb 22.1812 -406.175
lclavicle 5.56597e-015 6.16232e-014
lhumerus 90.4901 14.7501 65.0775
lradius 51.3369
lwrist -13.1752
lhand 4.5705 -11.6693
lfingers 7.12502
lthumb 29.9602 15.9251
rfemur -3.67893 -6.18228 32.4859
rtibia 22.4124
rfoot -18.9158 3.92118
rtoes 23.0991
lfemur -30.0321 6.15068 -12.933
ltibia 27.3092
lfoot -9.56288 -0.423207
ltoes 7.56609
3812
root -17.8359 17.5902 11.2397 296.595 81.8696 -67.0712
lowerback 20.0684 2.47972 5.80451
upperback 2.03952 4.95766 2.49716
thorax -8.74422 2.27914 -1.91714
lowerneck -6.01994 -4.9032 -6.02484
upperneck 3.66679 -6.47952 8.00874
head 2.79933 -3.07804 3.44497
rclavicle -3.08116e-015 6.75868e-015
rhumerus 91.3313 -12.213 -62.0865
rradius 59.8003
rwrist 9.3359
rhand -3.98644 -376.645
rfingers 7.12502
rthumb 21.767 -405.441
lclavicle -3.08116e-015 6.75868e-015
lhumerus 91.2403 14.4255 65.5646
lradius 50.4297
lwrist -13.8028
lhand 3.98081 -11.4983
lfingers 7.12502
lthumb 29.3974 16.1964
rfemur -4.15691 -6.18026 32.8099
rtibia 22.2955
rfoot -18.3791 3.93924
rtoes 23.6884
lfemur -30.2913 5.02 -12.352
ltibia 27.3827
lfoot -10.9571 0.892898
ltoes 6.06813
3813
root -17.9445 17.6078 11.2586 296.277 81.9613 -67.5552
lowerback 20.216 2.52912 5.50316
upperback 2.10656 4.97552 2.57918
thorax -8.78292 2.30113 -1.67172
lowerneck -5.39854 -5.1777 -5.79996
upperneck 2.62711 -6.83718 8.06519
head 2.35258 -3.2733 3.41316
rclavicle 4.14466e-014 1.51076e-014
rhumerus 91.8078 -11.908 -62.5454
rradius 59.1164
rwrist 9.96085
rhand -4.44969 -375.806
rfingers 7.12502
rthumb 21.3221 -404.653
lclavicle 4.14466e-014 1.51076e-014
lhumerus 91.9158 14.2956 66.0027
lradius 49.3682
lwrist -14.3401
lhand 3.08096 -11.4256
lfingers 7.12502
lthumb 28.5379 16.4167
rfemur -4.74886 -5.94366 32.8976
rtibia 22.3048
rfoot -18.1085 3.82995
rtoes 24.3144
lfemur -30.8187 6.05409 -12.561
ltibia 27.4256
lfoot -11.6707 -0.830224
ltoes 10.8111
3814
root -18.0492 17.6233 11.251 295.787 81.4015 -68.0091
lowerback 20.5183 2.50727 6.12995
upperback 2.23399 5.1225 2.66285
thorax -8.75251 2.35746 -1.98411
lowerneck -5.33503 -5.27832 -5.71129
upperneck 2.27226 -6.96925 8.29672
head 2.24039 -3.33624 3.47219
rclavicle -9.44227e-015 -4.25399e-014
rhumerus 92.1243 -11.8577 -62.8254
rradius 58.5879
rwrist 10.4136
rhand -4.89708 -375.111
rfingers 7.12502
rthumb 20.8923 -404.006
lclavicle -9.44227e-015 -4.25399e-014
lhumerus 92.5662 14.1456 66.2714
lradius 48.3821
lwrist -14.8419
lhand 2.38374 -11.3519
lfingers 7.12502
lthumb 27.8715 16.6003
rfemur -5.06571 -6.31212 33.4532
rtibia 22.33
rfoot -17.8374 4.28508
rtoes 23.5671
lfemur -30.7391 4.70769 -11.4089
ltibia 27.4615
lfoot -13.2271 1.04154
ltoes 10.39
3815
root -18.147 17.6509 11.2807 298.153 81.9473 -65.8082
lowerback 20.5291 2.68666 5.11454
upperback 2.33991 5.10316 2.4948
thorax -8.71285 2.38217 -1.59128
lowerneck -5.43946 -5.25078 -5.82596
upperneck 1.92934 -6.92437 9.03552
head 2.18617 -3.29643 3.75462
rclavicle -1.45113e-014 3.45885e-014
rhumerus 92.5178 -11.8899 -63.1563
rradius 58.0612
rwrist 10.9363
rhand -5.19772 -374.554
rfingers 7.12502
rthumb 20.6034 -403.48
lclavicle -1.45113e-014 3.45885e-014
lhumerus 93.2701 13.9157 66.6406
lradius 47.5344
lwrist -15.4293
lhand 1.91796 -12.6564
lfingers 7.12502
lthumb 27.4261 15.3672
rfemur -5.63712 -6.20774 32.9399
rtibia 22.4134
rfoot -17.6315 4.33474
rtoes 23.6513
lfemur -31.1217 7.03905 -12.6302
ltibia 27.464
lfoot -13.1822 -0.319776
ltoes 9.36223
3816
root -18.247 17.6712 11.2909 297.899 82.4068 -65.946
lowerback 20.911 2.63634 4.72432
upperback 2.48186 4.95344 2.31568
thorax -8.78661 2.32122 -1.54588
lowerneck -5.08842 -5.41277 -5.37838
upperneck 1.44643 -7.14477 8.807
head 1.94539 -3.42133 3.58604
rclavicle -2.82274e-014 -3.3197e-014
rhumerus 92.9063 -11.8483 -63.5853
rradius 57.5192
rwrist 11.4214
rhand -5.42598 -374.066
rfingers 7.12502
rthumb 20.3841 -403.016
lclavicle -2.82274e-014 -3.3197e-014
lhumerus 93.9113 13.6677 67.0266
lradius 46.8417
lwrist -15.9883
lhand 1.57516 -13.7329
lfingers 7.12502
lthumb 27.0982 14.3422
rfemur -5.87699 -6.30164 32.5662
rtibia 22.3565
rfoot -17.3188 4.42889
rtoes 25.1395
lfemur -30.8768 4.49532 -12.2697
ltibia 27.5665
lfoot -14.4711 2.05527
ltoes 9.96629
3817
root -18.3384 17.6842 11.3029 299.046 82.6516 -64.9522
lowerback 20.9147 2.68576 4.43841
upperback 2.53027 4.93028 2.13521
thorax -8.74258 2.3177 -1.57354
lowerneck -4.96581 -5.52101 -5.06761
upperneck 1.34975 -7.30399 8.7379
head 1.88473 -3.50341 3.49842
rclavicle -3.67752e-015 -5.76476e-015
rhumerus 93.1754 -11.764 -63.9892
rradius 57.0563
rwrist 11.5156
rhand -5.5992 -373.731
rfingers 7.12502
rthumb 20.2176 -402.699
lclavicle -3.67752e-015 -5.76476e-015
lhumerus 94.2607 13.6498 66.7609
lradius 46.1698
lwrist -15.9531
lhand 0.960538 -14.4073
lfingers 7.12502
lthumb 26.5101 13.758
rfemur -6.36605 -6.42084 32.3831
rtibia 22.2854
rfoot -16.9932 4.55935
rtoes 26.2277
lfemur -31.1457 5.65602 -12.8013
ltibia 27.7124
lfoot -14.4204 1.25861
ltoes 8.3337
3818
root -18.4288 17.7011 11.3205 298.7 82.6736 -65.4777
lowerback 20.9381 2.69461 4.36817
upperback 2.55367 4.91594 2.03929
thorax -8.72669 2.31198 -1.63482
lowerneck -5.30784 -5.47962 -5.38444
upperneck 1.53845 -7.25084 9.47067
head 2.0607 -3.4507 3.81014
rclavicle -3.47873e-014 -3.598e-014
rhumerus 93.4851 -11.6987 -64.4268
rradius 56.6092
rwrist 11.3829
rhand -5.83268 -373.606
rfingers 7.12502
rthumb 19.9932 -402.598
lclavicle -3.47873e-014 -3.598e-014
lhumerus 94.2486 14.0909 65.4716
lradius 45.7931
lwrist -14.9211
lhand 0.142719 -13.9536
lfingers 7.12502
lthumb 25.7271 14.3274
rfemur -6.84078 -6.44986 32.5536
rtibia 22.1708
rfoot -16.7745 4.29588
rtoes 25.9208
lfemur -31.3572 5.25754 -12.5116
ltibia 27.944
lfoot -14.4475 1.79662
ltoes 8.33151
